# Blender 5.0.1
# www.blender.org
o Cube
v -2.539455 -1.000000 1.820192
v -2.539455 1.000000 1.820192
v 2.539455 -1.000000 1.820192
v 2.539455 1.000000 1.820192
v 2.539455 -1.000000 -1.000000
v 2.539455 1.000000 -1.000000
v -0.232310 -1.000000 -1.000000
v -0.232310 1.000000 -1.000000
v -2.539455 1.000000 -2.983805
v -2.539455 -1.000000 -2.983805
v -0.232310 -1.000000 -2.983805
v -0.232310 1.000000 -2.983805
v -1.385883 2.397249 0.410096
v 2.539455 2.397249 0.410096
v -1.385883 2.397249 -2.983805
vn -0.0000 -0.0000 -1.0000
vn 1.0000 -0.0000 -0.0000
vn -0.0000 0.7103 0.7039
vn -0.0000 -1.0000 -0.0000
vn -1.0000 -0.0000 -0.0000
vn -0.7711 0.6367 -0.0000
vn 0.7711 0.6367 -0.0000
vn -0.0000 0.7103 -0.7039
vn -0.0000 -0.0000 1.0000
vt 0.625000 0.363565
vt 0.375000 0.500000
vt 0.375000 0.363565
vt 0.625000 0.500000
vt 0.375000 0.750000
vt 0.625000 0.750000
vt 0.625000 1.000000
vt 0.238565 0.500000
vt 0.125000 0.500000
vt 0.125000 0.750000
vt 0.625000 0.250000
vt 0.375000 0.250000
vt 0.375000 0.000000
vt 0.625000 0.000000
vt 0.375000 1.000000
s 0
f 8/1/1 5/2/1 7/3/1
f 6/4/2 3/5/2 5/2/2
f 4/6/3 13/7/3 2/7/3
f 7/8/4 10/9/4 11/8/4
f 7/8/4 3/5/4 1/10/4
f 7/3/2 12/1/2 8/1/2
f 9/11/1 11/3/1 10/12/1
f 9/11/5 1/13/5 2/14/5
f 13/11/6 9/11/6 2/14/6
f 8/1/7 15/1/7 13/1/7
f 8/1/8 14/4/8 6/4/8
f 12/1/1 9/11/1 15/1/1
f 4/6/2 6/4/2 14/6/2
f 4/6/9 1/15/9 3/5/9
f 8/1/1 6/4/1 5/2/1
f 6/4/2 4/6/2 3/5/2
f 4/6/3 14/6/3 13/7/3
f 7/8/4 1/10/4 10/9/4
f 7/8/4 5/2/4 3/5/4
f 7/3/2 11/3/2 12/1/2
f 9/11/1 12/1/1 11/3/1
f 9/11/5 10/12/5 1/13/5
f 13/11/6 15/11/6 9/11/6
f 8/1/7 12/1/7 15/1/7
f 8/1/8 13/1/8 14/4/8
f 4/6/9 2/7/9 1/15/9
